<mxfile host="app.diagrams.net" modified="2024-05-17T00:05:02.545Z" agent="Mozilla/5.0 (Macintosh; Intel Mac OS X 10_15_7) AppleWebKit/605.1.15 (KHTML, like Gecko) Version/16.5.1 Safari/605.1.15" version="24.4.3" etag="Cjgtzy-w1QkOfTAqIteW" type="github">
  <diagram name="PÃ¡gina-1" id="tQ8iS2c3beRkrpIdacRX">
    <mxGraphModel>
      <root>
        <mxCell id="0" />
        <mxCell id="1" parent="0" />
      </root>
    </mxGraphModel>
  </diagram>
</mxfile>
